# xmcd
#
# Track frame offsets:
#	150
#	11428
#	25060
#	34810
#	48279
#	55976
#	63267
#	70527
#	85666
#	95271
#	108459
#	118863
#	127494
#
# Disc length: 1820 seconds
#
# Revision: 1
# Processed by: cddbd v1.4PL0 Copyright (c) Steve Scherf et al.
# Submitted via: audiograbber 1.82.02
#
DISCID=a8071a0d
DTITLE=Total Ohral - unplugged
DYEAR=1900
DGENRE=A Cappella
TTITLE0=Lullaby of Broadway
TTITLE1=Aqua de Beber
TTITLE2=Lollypop
TTITLE3=How deep is your love
TTITLE4=Badewasser
TTITLE5=Can't by me love
TTITLE6=Probier's mal
TTITLE7=For the longest time
TTITLE8=All about the blues
TTITLE9=The long day closes
TTITLE10=Dream
TTITLE11=Smile
TTITLE12=Whaen I fall in Love
EXTD=
EXTT0=
EXTT1=
EXTT2=
EXTT3=
EXTT4=
EXTT5=
EXTT6=
EXTT7=
EXTT8=
EXTT9=
EXTT10=
EXTT11=
EXTT12=
PLAYORDER=
